<?xml version="1.0" encoding="utf-8"?>
<!-- Generator: Adobe Illustrator 15.1.0, SVG Export Plug-In . SVG Version: 6.00 Build 0)  -->
<!DOCTYPE svg PUBLIC "-//W3C//DTD SVG 1.1//EN" "http://www.w3.org/Graphics/SVG/1.1/DTD/svg11.dtd">
<svg version="1.1" id="Layer_1" xmlns="http://www.w3.org/2000/svg" xmlns:xlink="http://www.w3.org/1999/xlink" x="0px" y="0px"
	 width="382.968796088" height="261.117879633" viewBox="0 0 623.62 425.2" enable-background="new 0 0 623.62 425.2" xml:space="preserve">
<rect x="22" y="33.274" fill="none" width="579.65" height="357.151"/>
<g>
	<defs>
		<rect id="SVGID_1_" x="22" y="33.274" width="579.65" height="357.151"/>
	</defs>
	<clipPath id="SVGID_2_">
		<use xlink:href="#SVGID_1_"  overflow="visible"/>
	</clipPath>
	<g clip-path="url(#SVGID_2_)">
		<g>
			<path fill-rule="evenodd" clip-rule="evenodd" fill="#CBE6C8" d="M310.505,68.558c0.808-0.399,3.272-0.399,4.08,0
				C313.226,68.558,311.865,68.558,310.505,68.558z"/>
			<path fill-rule="evenodd" clip-rule="evenodd" fill="#A1D397" d="M310.985,96.4c0.259-0.397,2.141-0.397,2.4,0
				C312.585,96.4,311.785,96.4,310.985,96.4z"/>
			<path fill-rule="evenodd" clip-rule="evenodd" fill="#A1D397" d="M395.232,235.372c-0.4-17.842-0.4-37.363,0-55.205
				C395.232,198.568,395.232,216.971,395.232,235.372z"/>
			<path fill-rule="evenodd" clip-rule="evenodd" fill="#CBE6C8" d="M339.067,190.248c0.561,13.121,0.08,27.282,0.24,40.804
				C338.747,217.931,339.228,203.769,339.067,190.248z"/>
			<path fill-rule="evenodd" clip-rule="evenodd" fill="#CBE6C8" d="M305.225,229.852c0.411-0.55,1.832-0.088,2.64-0.24
				c0,0.08,0,0.16,0,0.24C306.985,229.852,306.104,229.852,305.225,229.852z"/>
			<path fill-rule="evenodd" clip-rule="evenodd" fill="#A1D397" d="M307.865,229.852c0-0.08,0-0.16,0-0.24c2.88,0,5.76,0,8.641,0
				c0,0.08,0,0.16,0,0.24C313.625,229.852,310.745,229.852,307.865,229.852z"/>
			<path fill-rule="evenodd" clip-rule="evenodd" fill="#CBE6C8" d="M316.506,229.852c0-0.08,0-0.16,0-0.24
				c0.887,0.153,2.391-0.311,2.88,0.24C318.426,229.852,317.466,229.852,316.506,229.852z"/>
			<path fill-rule="evenodd" clip-rule="evenodd" fill="#70C05F" d="M433.636,261.534c0.57-0.398,2.789-0.398,3.36,0
				C435.876,261.534,434.756,261.534,433.636,261.534z"/>
			<path fill-rule="evenodd" clip-rule="evenodd" fill="#CBE6C8" d="M85.125,262.975c4.481-0.4,10.64-0.4,15.121,0
				C95.207,262.975,90.166,262.975,85.125,262.975z"/>
			<path fill-rule="evenodd" clip-rule="evenodd" fill="#CBE6C8" d="M133.61,262.975c4.561-0.56,10.161-0.081,15.121-0.24
				c0,0.08,0,0.16,0,0.24C143.69,262.975,138.65,262.975,133.61,262.975z"/>
			<path fill-rule="evenodd" clip-rule="evenodd" fill="#CBE6C8" d="M162.652,262.975c0-0.08,0-0.16,0-0.24
				c13.681,0.16,28.002-0.32,41.283,0.24C190.174,262.975,176.414,262.975,162.652,262.975z"/>
			<path fill-rule="evenodd" clip-rule="evenodd" fill="#CBE6C8" d="M257.46,262.975c4.081-0.4,9.84-0.4,13.921,0
				C266.741,262.975,262.101,262.975,257.46,262.975z"/>
			<path fill-rule="evenodd" clip-rule="evenodd" fill="#70C05F" d="M285.303,262.734c0,0.08,0,0.16,0,0.24
				c0,13.201,0,26.402,0,39.604C284.903,289.856,284.903,275.455,285.303,262.734z"/>
			<path fill-rule="evenodd" clip-rule="evenodd" fill="#CBE6C8" d="M285.303,262.975c0-0.08,0-0.16,0-0.24
				c4.641,0,9.281,0,13.921,0c0,0.08,0,0.16,0,0.24C294.583,262.975,289.943,262.975,285.303,262.975z"/>
			<path fill-rule="evenodd" clip-rule="evenodd" fill="#CBE6C8" d="M325.146,262.975c4.081-0.4,9.84-0.4,13.921,0
				C334.427,262.975,329.787,262.975,325.146,262.975z"/>
			<path fill-rule="evenodd" clip-rule="evenodd" fill="#CBE6C8" d="M352.988,262.975c0-0.08,0-0.16,0-0.24
				c4.641,0,9.281,0,13.922,0c0,0.08,0,0.16,0,0.24C362.27,262.975,357.629,262.975,352.988,262.975z"/>
			<path fill-rule="evenodd" clip-rule="evenodd" fill="#70C05F" d="M366.91,262.975c0-0.08,0-0.16,0-0.24
				c0.56,16.321,0.08,33.683,0.24,50.404C366.59,296.896,367.07,279.616,366.91,262.975z"/>
			<path fill-rule="evenodd" clip-rule="evenodd" fill="#A1D397" d="M85.125,325.859c-0.4-20.401-0.4-42.483,0-62.885
				C85.125,283.936,85.125,304.898,85.125,325.859z"/>
			<path fill-rule="evenodd" clip-rule="evenodd" fill="#A1D397" d="M271.382,262.975c0.4,20.401,0.4,42.483,0,62.885
				C271.382,304.898,271.382,283.936,271.382,262.975z"/>
			<path fill-rule="evenodd" clip-rule="evenodd" fill="#A1D397" d="M339.067,262.975c0.4,12.561,0.4,26.802,0,39.363
				C339.067,289.217,339.067,276.096,339.067,262.975z"/>
			<path fill-rule="evenodd" clip-rule="evenodd" fill="#A1D397" d="M433.636,274.255c0.492-0.397,2.628-0.397,3.12,0
				C435.716,274.255,434.676,274.255,433.636,274.255z"/>
			<path fill-rule="evenodd" clip-rule="evenodd" fill="#A1D397" d="M176.573,275.455c8.641-0.56,18.322-0.08,27.362-0.239
				c-8.561,0.56-18.161,0.08-27.122,0.239C176.733,275.455,176.653,275.455,176.573,275.455z"/>
			<path fill-rule="evenodd" clip-rule="evenodd" fill="#CBE6C8" d="M230.098,325.859c0-6.48,0-12.961,0-19.441
				c0.158-6.003-0.317-13.918,0.24-18.722c0,12.722,0,25.442,0,38.163C230.258,325.859,230.178,325.859,230.098,325.859z"/>
			<path fill-rule="evenodd" clip-rule="evenodd" fill="#70C05F" d="M510.922,289.856c0,0.08,0,0.16,0,0.24c0,4.08,0,8.161,0,12.241
				c0,0.08,0,0.16,0,0.24C510.522,298.896,510.522,293.538,510.922,289.856z"/>
			<path fill-rule="evenodd" clip-rule="evenodd" fill="#CBE6C8" d="M510.922,290.097c0-0.08,0-0.16,0-0.24
				c9.121,0.16,18.882-0.319,27.603,0.24C529.324,290.097,520.123,290.097,510.922,290.097z"/>
			<path fill-rule="evenodd" clip-rule="evenodd" fill="#A1D397" d="M538.524,290.097c0.4,8.001,0.4,17.682,0,25.683
				C538.524,307.218,538.524,298.657,538.524,290.097z"/>
			<path fill-rule="evenodd" clip-rule="evenodd" fill="#CBE6C8" d="M455.478,292.977c0.397,0.337,0.397,2.305,0,2.641
				C455.478,294.737,455.478,293.857,455.478,292.977z"/>
			<path fill-rule="evenodd" clip-rule="evenodd" fill="#70C05F" d="M176.813,300.418c0,4.32,0,8.641,0,12.961
				c-0.08,0-0.16,0-0.24,0C176.733,309.138,176.254,304.259,176.813,300.418z"/>
			<path fill-rule="evenodd" clip-rule="evenodd" fill="#CBE6C8" d="M510.922,302.578c0-0.08,0-0.16,0-0.24
				c4.562,0.159,9.761-0.319,13.922,0.24C520.203,302.578,515.563,302.578,510.922,302.578z"/>
			<path fill-rule="evenodd" clip-rule="evenodd" fill="#A1D397" d="M524.844,302.578c0.399,2.082,0.399,5.838,0,7.92
				C524.844,307.858,524.844,305.218,524.844,302.578z"/>
			<path fill-rule="evenodd" clip-rule="evenodd" fill="#CBE6C8" d="M176.573,313.379c0.08,0,0.16,0,0.24,0
				c8.961,0.16,18.562-0.32,27.122,0.24C194.895,313.459,185.214,313.938,176.573,313.379z"/>
			<path fill-rule="evenodd" clip-rule="evenodd" fill="#CBE6C8" d="M508.762,314.579c0.881,0,1.761,0,2.641,0
				C511.066,314.977,509.099,314.977,508.762,314.579z"/>
			<path fill-rule="evenodd" clip-rule="evenodd" fill="#70C05F" d="M85.125,325.859c4.64,0,9.281,0,13.921,0
				C94.965,326.26,89.207,326.26,85.125,325.859z"/>
			<path fill-rule="evenodd" clip-rule="evenodd" fill="#70C05F" d="M216.177,325.859c0.08,0,0.16,0,0.24,0c4.56,0,9.121,0,13.681,0
				c0.08,0,0.16,0,0.24,0C226.177,326.26,220.338,326.26,216.177,325.859z"/>
			<path fill-rule="evenodd" clip-rule="evenodd" fill="#70C05F" d="M259.38,325.859c4,0,8.001,0,12.001,0
				C267.94,326.26,262.822,326.26,259.38,325.859z"/>
			<path fill-rule="evenodd" clip-rule="evenodd" fill="#A1D397" d="M541.645,353.222c-152.659,0.4-306.973,0.4-459.639,0
				C235.223,353.222,388.431,353.222,541.645,353.222z"/>
			<path fill-rule="evenodd" clip-rule="evenodd" fill="#A1D397" d="M232.498,102.641c0.86-1.061,1.82-2.021,2.88-2.88
				C234.519,100.821,233.559,101.781,232.498,102.641z"/>
			<path fill-rule="evenodd" clip-rule="evenodd" fill="#CBE6C8" d="M557.246,347.222c0.86-1.061,1.82-2.021,2.881-2.88
				C559.267,345.401,558.307,346.362,557.246,347.222z"/>
			<path fill-rule="evenodd" clip-rule="evenodd" fill="#3EB54A" d="M395.232,235.372c48.147,0,96.747,0,143.053,0
				c11.86,0,18.963,4.282,23.762,12.001c5.107,8.216,4.081,19.337,4.08,31.683c0,11.141,0.001,24.065,0,35.763
				c0,11.782,0.512,23.139-6,29.523c-1.061,0.859-2.021,1.819-2.881,2.88c-4.159,3.041-8.611,5.789-15.602,6
				c-153.214,0-306.421,0-459.639,0c-14.35-1.491-22.176-9.506-24.242-23.281c0-23.683,0-47.364,0-71.047
				c1.454-12.329,9.554-21.486,21.602-23.281c5.739-0.855,12.353-0.24,18.722-0.24c43.059,0,89.256,0,131.771,0
				c0.4-17.922,0.4-37.523,0-55.445c-7.576-9.747-13.979-22.947-13.201-40.083c0.733-16.146,8.016-28.448,15.841-37.203
				c1.061-0.86,2.021-1.82,2.88-2.88c9.804-8.37,20.001-14.517,36.003-15.602c2.457-0.167,5.835-4.019,8.4-5.76
				c8.262-5.61,18.078-9.124,30.723-9.841c1.36,0,2.721,0,4.08,0c17.012,0.831,28.59,7.094,37.924,15.601
				c23.787,1.145,41.892,15.744,50.164,32.883c4.711,9.76,6.969,22.389,5.041,34.563c-1.85,11.675-6.394,20.762-12.481,28.563
				C394.832,198.009,394.832,217.53,395.232,235.372z M310.985,96.4c-8.693,0.188-14.204,3.558-19.202,7.44
				c-1.06,0.86-2.021,1.82-2.88,2.88c-1.704,1.977-3.025,4.336-4.561,6.48c-20.211-6.118-38.983,8.395-40.083,26.882
				c-0.399,1.205-0.399,4.076,0,5.281c0.551,8.01,3.707,13.415,7.681,18.001c0.7,0.9,1.5,1.701,2.4,2.4
				c4.375,3.656,3.12,12.548,3.12,20.642c0,16.146,0,33.888,0,48.964c9.03-1.69,18.186-3.256,27.842-4.32c0-6.529,0-13.912,0-21.602
				c0-11.116-2.784-26.204,7.201-25.922c9.432,0.266,6.721,14.746,6.721,25.202c0,7.642,0,14.935,0,21.362
				c2.093,0.013,3.75-0.411,6-0.24c0.88,0,1.76,0,2.64,0c2.88,0,5.76,0,8.641,0c0.96,0,1.92,0,2.88,0
				c2.178-0.178,3.725,0.276,5.761,0.24c0.56-13.042,0.08-27.123,0.24-40.564c0.354-8.032,13.966-7.506,13.681,0.72
				c0.16,13.521-0.32,27.683,0.24,40.804c9.412,1.148,18.604,2.518,27.362,4.32c1.108-19.392,0.167-43.283,0.48-63.846
				c0.966-5.296,5.884-8.079,8.641-12.481c2.538-4.055,4.173-8.144,4.56-13.921c1.45-21.624-17.733-38.076-40.563-31.923
				c-5.108-9.293-12.795-16.007-26.402-16.801C313.126,96.002,311.244,96.002,310.985,96.4z M433.636,261.534
				c-9.132,0.47-15.271,3.932-20.401,8.4c-0.901,0.7-1.701,1.5-2.4,2.4c-11.322,10.309-10.569,34.855,0,44.164
				c0.699,0.9,1.499,1.7,2.4,2.4c5.058,4.063,10.632,7.608,19.201,8.16c1.364,0.399,4.396,0.399,5.761,0
				c16.313-1.261,28.946-14.494,30.002-30.242c1.398-20.845-13.421-33.484-31.202-35.283
				C436.425,261.136,434.206,261.136,433.636,261.534z M512.122,274.255c5.566,0.355,8.813,3.028,12.241,5.521
				c2.55-3.211,5.268-6.253,7.921-9.36c-9.359-12.198-35.58-11.252-44.884-0.24c-0.9,0.7-1.701,1.5-2.4,2.4
				c-4.432,4.849-7.847,10.714-8.4,19.441c-0.399,0.967-0.399,3.595,0,4.561c1.096,16.593,14.619,29.643,30.723,30.723
				c13.073,0.877,24.092-3.97,31.202-11.521c0.4-8.001,0.4-17.682,0-25.683c-8.721-0.56-18.481-0.08-27.603-0.24
				c-0.399,3.682-0.399,9.04,0,12.722c4.641,0,9.281,0,13.922,0c0,2.64,0,5.28,0,7.92c-3.591,2.25-7.85,3.832-13.441,4.081
				c-0.88,0-1.76,0-2.641,0c-11.469-1.347-19.512-9.782-18.241-22.803c0.945-9.689,7.803-16.085,17.281-17.521
				C509.242,274.255,510.683,274.255,512.122,274.255z M85.125,262.975c-0.4,20.401-0.4,42.483,0,62.885
				c4.081,0.4,9.84,0.4,13.921,0c0-13.041,0-26.082,0-39.123c4.804,6.717,8.999,14.043,13.681,20.882c2.242,0.399,6.158,0.399,8.4,0
				c4.369-6.912,8.867-13.695,13.201-20.642c0.72,12.481-0.239,26.642,0.48,39.123c4.641,0,9.281,0,13.921,0
				c0.4-20.562,0.4-42.804,0-63.365c-4.96,0.159-10.561-0.319-15.121,0.24c-5.861,8.22-10.94,17.222-16.802,25.442
				c-5.548-8.453-10.927-17.076-16.562-25.442C95.766,262.574,89.606,262.574,85.125,262.975z M162.652,262.734
				c-0.436,9.015-0.24,19.663-0.24,31.442c0,7.879,0,15.737,0,23.763c0,2.318-0.402,7.438,0,7.92c0.67,0.804,8.377,0.24,10.081,0.24
				c10.826,0,21.824,0.195,31.442-0.24c0-4.08,0-8.16,0-12.24c-8.561-0.561-18.161-0.08-27.122-0.24c0-4.32,0-8.641,0-12.961
				c7.281,0,14.561,0,21.842,0c0-4.161,0-8.321,0-12.481c-6.801-0.56-14.641-0.08-21.842-0.24c0-4.08,0-8.16,0-12.241
				c8.961-0.159,18.562,0.32,27.122-0.239c0-4.081,0-8.161,0-12.241C190.655,262.414,176.333,262.895,162.652,262.734z
				 M229.618,263.214c-3.537-1.103-9.108-0.172-13.441-0.479c0,21.042,0,42.083,0,63.125c4.161,0.4,10,0.4,14.161,0
				c0-12.721,0-25.441,0-38.163c9.772,12.631,19.278,25.526,29.042,38.163c3.441,0.4,8.56,0.4,12.001,0
				c0.4-20.401,0.4-42.483,0-62.885c-4.082-0.4-9.84-0.4-13.921,0c0,12.241,0,24.481,0,36.723
				C247.958,287.758,239.003,275.271,229.618,263.214z M285.303,302.578c1.093,15.068,9.386,22.937,24.002,24.481
				c1.364,0.399,4.396,0.399,5.761,0c14.672-1.569,23.1-9.383,24.002-24.722c0.4-12.562,0.4-26.803,0-39.363
				c-4.081-0.4-9.84-0.4-13.921,0c-1,12.648,1.335,28.434,0,40.323c-1.607,14.315-23.864,15.477-25.683,0
				c-0.16-13.441,0.32-27.522-0.24-40.563c-4.641,0-9.281,0-13.921,0C284.903,275.455,284.903,289.856,285.303,302.578z
				 M352.988,262.734c-0.56,20.562-0.08,42.164-0.239,63.125c14.802,0.4,31.281,0.4,46.084,0c-0.16-4.16,0.319-8.96-0.24-12.721
				c-10.481,0-20.962,0-31.442,0c-0.16-16.722,0.319-34.083-0.24-50.404C362.27,262.734,357.629,262.734,352.988,262.734z"/>
			<path fill-rule="evenodd" clip-rule="evenodd" fill="#70C05F" d="M288.903,106.721c0.859-1.061,1.82-2.021,2.88-2.88
				C290.924,104.901,289.963,105.861,288.903,106.721z"/>
			<path fill-rule="evenodd" clip-rule="evenodd" fill="#CBE6C8" d="M251.94,163.366c0.9,0.7,1.701,1.5,2.4,2.4
				C253.439,165.066,252.64,164.266,251.94,163.366z"/>
			<path fill-rule="evenodd" clip-rule="evenodd" fill="#70C05F" d="M367.15,171.526c-0.313,20.563,0.628,44.454-0.48,63.846
				C367.39,214.649,366.43,192.249,367.15,171.526z"/>
			<path fill-rule="evenodd" clip-rule="evenodd" fill="#A1D397" d="M410.834,272.335c0.699-0.9,1.499-1.7,2.4-2.4
				C412.534,270.836,411.734,271.636,410.834,272.335z"/>
			<path fill-rule="evenodd" clip-rule="evenodd" fill="#70C05F" d="M410.834,316.499c0.9,0.699,1.7,1.5,2.4,2.4
				C412.333,318.199,411.533,317.399,410.834,316.499z"/>
			<path fill-rule="evenodd" clip-rule="evenodd" fill="#EFF7EB" d="M485,272.575c0.699-0.9,1.5-1.7,2.4-2.4
				C486.701,271.075,485.9,271.876,485,272.575z"/>
			<path fill-rule="evenodd" clip-rule="evenodd" fill="#70C05F" d="M134.33,286.977c0.071-0.266,0.377-0.571,0.48-0.24
				c0.718,2.313,0,6.7,0,9.601c0,9.77,0,20.597,0,29.522c2.029,0,3.971,0,6.721,0c1.293,0,6.174,0.656,6.961,0
				c0.7-0.583,0.24-5.728,0.24-7.44c0-18.259,0-38.854,0-55.444c0-0.08,0-0.16,0-0.24c0.4,20.562,0.4,42.804,0,63.365
				c-4.64,0-9.281,0-13.921,0C134.09,313.618,135.049,299.458,134.33,286.977z"/>
			<path fill-rule="evenodd" clip-rule="evenodd" fill="#70C05F" d="M162.652,262.734c0,0.08,0,0.16,0,0.24
				c0,20.961,0,41.924,0,62.885c13.761,0,27.522,0,41.283,0c-9.619,0.436-20.617,0.24-31.442,0.24c-1.704,0-9.411,0.563-10.081-0.24
				c-0.402-0.482,0-5.602,0-7.92c0-8.025,0-15.884,0-23.763C162.412,282.397,162.217,271.749,162.652,262.734z"/>
			<path fill-rule="evenodd" clip-rule="evenodd" fill="#70C05F" d="M176.573,275.455c0.08,0,0.16,0,0.24,0
				c0,4.081,0,8.161,0,12.241c7.201,0.16,15.041-0.319,21.842,0.24c-7.281-0.16-15.201,0.319-22.082-0.24
				C176.573,283.616,176.573,279.536,176.573,275.455z"/>
			<path fill-rule="evenodd" clip-rule="evenodd" fill="#CBE6C8" d="M216.177,325.859c0-21.042,0-42.083,0-63.125
				c4.333,0.308,9.904-0.623,13.441,0.479c-3.847-0.553-8.716-0.084-12.961-0.239c-0.56,20.481-0.08,42.003-0.24,62.885
				C216.337,325.859,216.257,325.859,216.177,325.859z"/>
			<path fill-rule="evenodd" clip-rule="evenodd" fill="#70C05F" d="M352.988,262.734c0,0.08,0,0.16,0,0.24
				c0,20.961,0,41.924,0,62.885c15.201,0,30.403,0,45.604,0c0-4.24,0-8.48,0-12.721c0.56,3.761,0.08,8.561,0.24,12.721
				c-14.803,0.4-31.282,0.4-46.084,0C352.908,304.898,352.429,283.296,352.988,262.734z"/>
			<path fill-rule="evenodd" clip-rule="evenodd" fill="#3EB54A" d="M436.756,274.255c11.103,1.379,17.235,7.728,18.722,18.722
				c0,0.881,0,1.761,0,2.641c-0.982,8.258-4.682,13.427-10.321,16.562c-17.33,9.634-36.185-9.052-28.322-26.402
				c2.825-6.234,8.087-10.283,16.802-11.521C434.676,274.255,435.716,274.255,436.756,274.255z"/>
			<path fill-rule="evenodd" clip-rule="evenodd" fill="#70C05F" d="M299.224,262.734c0.56,13.041,0.08,27.122,0.24,40.563
				c-0.56-12.961-0.08-26.962-0.24-40.323C299.224,262.895,299.224,262.814,299.224,262.734z"/>
			<path fill-rule="evenodd" clip-rule="evenodd" fill="#CBE6C8" d="M112.728,307.618c2.8,0,5.6,0,8.4,0
				C118.886,308.018,114.97,308.018,112.728,307.618z"/>
			<path fill-rule="evenodd" clip-rule="evenodd" fill="#CBE6C8" d="M244.259,140.083c0,1.76,0,3.521,0,5.281
				C243.86,144.159,243.86,141.289,244.259,140.083z"/>
			<path fill-rule="evenodd" clip-rule="evenodd" fill="#CBE6C8" d="M229.858,179.927c0.4,17.921,0.4,37.523,0,55.445
				C229.858,216.891,229.858,198.409,229.858,179.927z"/>
			<path fill-rule="evenodd" clip-rule="evenodd" fill="#CBE6C8" d="M476.6,292.017c0,1.521,0,3.04,0,4.561
				C476.2,295.611,476.2,292.983,476.6,292.017z"/>
			<path fill-rule="evenodd" clip-rule="evenodd" fill="#CBE6C8" d="M309.305,327.06c1.92,0,3.841,0,5.761,0
				C313.701,327.459,310.669,327.459,309.305,327.06z"/>
			<path fill-rule="evenodd" clip-rule="evenodd" fill="#CBE6C8" d="M432.436,327.06c1.92,0,3.841,0,5.761,0
				C436.832,327.459,433.8,327.459,432.436,327.06z"/>
			<path fill-rule="evenodd" clip-rule="evenodd" fill="#70C05F" d="M325.387,189.528c-0.16,13.441,0.319,27.522-0.24,40.564
				C325.307,216.65,324.826,202.569,325.387,189.528z"/>
			<path fill-rule="evenodd" clip-rule="evenodd" fill="#70C05F" d="M57.763,258.894c0,23.683,0,47.364,0,71.047
				C57.363,306.818,57.363,282.016,57.763,258.894z"/>
			<path fill-rule="evenodd" clip-rule="evenodd" fill="#70C05F" d="M507.802,274.255c0.888-0.398,3.434-0.398,4.32,0
				C510.683,274.255,509.242,274.255,507.802,274.255z"/>
		</g>
	</g>
</g>
</svg>
